<svg width="420" height="260" viewBox="0 0 420 260" fill="none" xmlns="http://www.w3.org/2000/svg">
  <rect x="40" y="30" width="220" height="200" rx="12" fill="#121212" stroke="#F2D3A3"/>
  <rect x="60" y="58" width="180" height="12" rx="3" fill="#2b2b2b"/>
  <rect x="60" y="80" width="160" height="10" rx="3" fill="#2b2b2b"/>
  <rect x="60" y="100" width="168" height="10" rx="3" fill="#2b2b2b"/>
  <rect x="60" y="122" width="150" height="10" rx="3" fill="#2b2b2b"/>
  <rect x="60" y="144" width="120" height="10" rx="3" fill="#2b2b2b"/>
  <rect x="60" y="166" width="160" height="10" rx="3" fill="#2b2b2b"/>

  <g>
    <rect x="280" y="50" width="100" height="160" rx="12" fill="#1A1A1A" stroke="#2b2b2b"/>
    <rect x="296" y="74" width="68" height="12" rx="3" fill="#2b2b2b"/>
    <rect x="296" y="96" width="68" height="10" rx="3" fill="#2b2b2b"/>
    <circle cx="330" cy="168" r="22" fill="#F2D3A3"/>
    <path d="M320 168l7 7 17-17" stroke="#0A0A0A" stroke-width="3" stroke-linecap="round" stroke-linejoin="round"/>
  </g>
</svg>

