<svg width="420" height="260" viewBox="0 0 420 260" fill="none" xmlns="http://www.w3.org/2000/svg">
  <rect x="10" y="10" width="400" height="240" rx="16" fill="#121212" stroke="#F2D3A3" stroke-width="2"/>
  <rect x="26" y="38" width="368" height="40" rx="8" fill="#1A1A1A" stroke="#2b2b2b"/>
  <circle cx="64" cy="58" r="14" fill="#2b2b2b" stroke="#F2D3A3"/>
  <rect x="90" y="50" width="160" height="16" rx="4" fill="#2b2b2b"/>

  <rect x="26" y="94" width="160" height="120" rx="10" fill="#1A1A1A" stroke="#2b2b2b"/>
  <circle cx="106" cy="144" r="34" fill="#2b2b2b" stroke="#F2D3A3"/>
  <rect x="56" y="190" width="100" height="10" rx="3" fill="#2b2b2b"/>

  <rect x="198" y="94" width="196" height="64" rx="10" fill="#1A1A1A" stroke="#2b2b2b"/>
  <rect x="212" y="110" width="168" height="12" rx="3" fill="#2b2b2b"/>
  <rect x="212" y="130" width="140" height="10" rx="3" fill="#2b2b2b"/>

  <rect x="198" y="168" width="196" height="46" rx="10" fill="#1A1A1A" stroke="#2b2b2b"/>
  <text x="208" y="196" font-family="'Segoe UI', system-ui, -apple-system" font-size="12" fill="#EAD8C0">Bar Council ID</text>
  <text x="208" y="212" font-family="'Segoe UI', system-ui, -apple-system" font-size="14" fill="#FFFFFF">DL/2016/5432</text>

  <g>
    <rect x="320" y="38" width="74" height="28" rx="14" fill="#F2D3A3"/>
    <path d="M328 52l8 8 16-16" stroke="#0A0A0A" stroke-width="3" stroke-linecap="round" stroke-linejoin="round"/>
  </g>

  <rect x="26" y="222" width="140" height="16" rx="8" fill="#F8E7CC"/>
  <text x="40" y="234" font-family="'Segoe UI', system-ui, -apple-system" font-size="10" fill="#0A0A0A">Aadhaar-linked verification</text>
</svg>

